# Blender 4.5.0
# www.blender.org
o Cube.001
v -0.124929 0.914295 -0.581833
v -0.124929 0.914295 0.599876
v -0.124929 1.250485 -0.581833
v -0.124929 1.250485 0.599876
v 0.007040 0.914295 -0.581833
v 0.007040 0.914295 0.599876
v 0.007040 1.250485 -0.581833
v 0.007040 1.250485 0.599876
v -0.168095 -0.168095 0.168095
v -0.168095 1.673420 0.168095
v -0.168095 -0.168095 -0.168095
v -0.168095 1.673420 -0.168095
v -0.036125 -0.168095 0.168095
v -0.036125 1.673420 0.168095
v -0.036125 -0.168095 -0.168095
v -0.036125 1.673420 -0.168095
v -0.124929 1.250485 -0.168095
v -0.124929 1.250485 0.168095
v -0.036125 1.250485 -0.168095
v -0.036125 1.250485 0.168095
v -0.124929 0.914295 -0.168095
v -0.124929 0.914295 0.168095
v -0.036125 0.914295 -0.168095
v -0.036125 0.914295 0.168095
v -0.036125 1.250485 -0.581833
v -0.036125 0.914295 -0.581833
v 0.007040 1.250485 -0.168095
v 0.007040 0.914295 -0.168095
v -0.168095 0.914295 0.168095
v -0.168095 0.914295 -0.168095
v 0.007040 1.250485 0.168095
v 0.007040 0.914295 0.168095
v -0.036125 1.250485 0.599876
v -0.036125 0.914295 0.599876
v -0.124929 1.673420 -0.168095
v -0.124929 1.673420 0.168095
v -0.168095 1.250485 0.168095
v -0.168095 1.250485 -0.168095
v -0.124929 -0.168095 -0.168095
v -0.124929 -0.168095 0.168095
vn -1.0000 -0.0000 -0.0000
vn -0.0000 1.0000 -0.0000
vn 1.0000 -0.0000 -0.0000
vn -0.0000 -1.0000 -0.0000
vn -0.0000 -0.0000 -1.0000
vn -0.0000 -0.0000 1.0000
vt 0.375000 0.000000
vt 0.462530 0.000000
vt 0.462530 0.250000
vt 0.375000 0.250000
vt 0.533653 0.418228
vt 0.533653 0.250000
vt 0.625000 0.250000
vt 0.625000 0.418228
vt 0.533653 0.500000
vt 0.625000 0.500000
vt 0.625000 0.750000
vt 0.533653 0.750000
vt 0.533653 0.831772
vt 0.625000 0.831772
vt 0.625000 1.000000
vt 0.533653 1.000000
vt 0.293228 0.500000
vt 0.375000 0.500000
vt 0.375000 0.750000
vt 0.293228 0.750000
vt 0.706772 0.500000
vt 0.875000 0.500000
vt 0.875000 0.750000
vt 0.706772 0.750000
vt 0.567583 0.000000
vt 0.625000 0.000000
vt 0.567583 0.250000
vt 0.567583 0.331772
vt 0.625000 0.331772
vt 0.567583 0.500000
vt 0.521943 0.500000
vt 0.521943 0.750000
vt 0.625000 0.918228
vt 0.567583 0.918228
vt 0.567583 0.750000
vt 0.206772 0.500000
vt 0.206772 0.750000
vt 0.793228 0.500000
vt 0.793228 0.750000
vt 0.533653 0.000000
vt 0.125000 0.500000
vt 0.125000 0.750000
vt 0.462530 0.418228
vt 0.375000 0.418228
vt 0.462530 0.500000
vt 0.462530 0.750000
vt 0.375000 0.831772
vt 0.462530 0.831772
vt 0.462530 1.000000
vt 0.375000 1.000000
vt 0.521943 0.000000
vt 0.521943 0.250000
vt 0.375000 0.331772
vt 0.521943 0.331772
vt 0.375000 0.918228
vt 0.521943 0.918228
vt 0.521943 1.000000
vt 0.567583 1.000000
s 0
f 1/1/1 21/2/1 17/3/1 3/4/1
f 20/5/2 18/6/2 4/7/2 33/8/2
f 31/9/3 8/10/3 6/11/3 32/12/3
f 24/13/4 34/14/4 2/15/4 22/16/4
f 25/17/5 7/18/5 5/19/5 26/20/5
f 33/21/6 4/22/6 2/23/6 34/24/6
f 37/25/1 10/26/1 12/7/1 38/27/1
f 17/28/5 35/29/5 16/10/5 19/30/5
f 15/18/3 23/31/3 24/32/3 13/19/3
f 36/33/6 18/34/6 20/35/6 14/11/6
f 39/36/4 15/18/4 13/19/4 40/37/4
f 35/38/2 12/22/2 10/23/2 36/39/2
f 18/6/1 22/40/1 2/26/1 4/7/1
f 20/35/3 19/30/3 16/10/3 14/11/3
f 3/41/5 25/17/5 26/20/5 1/42/5
f 3/4/2 17/3/2 19/43/2 25/44/2
f 7/18/3 27/45/3 28/46/3 5/19/3
f 25/44/2 19/43/2 27/45/2 7/18/2
f 26/47/4 23/48/4 21/49/4 1/50/4
f 9/1/1 29/51/1 30/52/1 11/4/1
f 39/53/5 21/54/5 23/31/5 15/18/5
f 40/55/6 22/56/6 29/57/6 9/50/6
f 27/45/3 31/9/3 32/12/3 28/46/3
f 19/43/2 20/5/2 31/9/2 27/45/2
f 28/46/4 32/12/4 24/13/4 23/48/4
f 8/10/6 33/21/6 34/24/6 6/11/6
f 31/9/2 20/5/2 33/8/2 8/10/2
f 32/12/4 6/11/4 34/14/4 24/13/4
f 5/19/4 28/46/4 23/48/4 26/47/4
f 16/10/2 35/38/2 36/39/2 14/11/2
f 38/27/5 12/7/5 35/29/5 17/28/5
f 37/58/6 18/34/6 36/33/6 10/15/6
f 29/51/1 37/25/1 38/27/1 30/52/1
f 29/57/6 22/56/6 18/34/6 37/58/6
f 30/52/5 38/27/5 17/28/5 21/54/5
f 11/41/4 39/36/4 40/37/4 9/42/4
f 11/4/5 30/52/5 21/54/5 39/53/5
f 13/19/6 24/32/6 22/56/6 40/55/6
